#!OML:ASF E:/inclinewalkrobotboard/Project1/Captureday1/Session1/subject1.ASF
:FULLY-SPECIFIED
:DEGREES
13
root 0 0 0 -2.3675622652715527 -3.849097994576703 -3.665986926851845
lowerback 19.602680266465796 1.4502754986398283 -0.5664686467153277
upperback 5.682367907264686 1.9455898162617982 0.9861479777692466
thorax -4.817718801433269 0.9432625693557496 1.0590051859598528
lowerneck -2.640976650964088 -3.339654236476589 1.4001083700699375
upperneck 12.402195103705628 -4.748178516856102 2.015982193606777
head 4.811678783895943 -2.1450550907276247 0.08943976771016815
rclavicle 8.346741762507773E-17 2.610403712567912E-15
rhumerus -16.475936664246323 -19.324863610824547 -76.01788095568513
rradius 74.7306419455322
rwrist 30.930255975390004
rhand -19.76200257757288 -18.478147009276015
rfingers 7.12501999999995
rthumb 6.602709444353438 -48.49185939391879
lclavicle 4.496826077585928E-16 2.704984180180149E-15
lhumerus -44.35201745380319 -6.421862504718088 82.8430270724616
lradius 59.663899035087276
lwrist 8.906865869989584
lhand -14.111939449897116 -21.640496772964674
lfingers 7.125019999999889
lthumb 11.939675061697473 8.243181294788137
rfemur -14.262705746975257 7.435674179766942 34.18904243876159
rtibia 41.83097268202334
rfoot -12.960932729631104 -8.408200054338076
rtoes 6.189632285863233
lfemur -18.801434406333822 -0.8775199606286885 -20.929927199279277
ltibia 37.29690292718534
lfoot 1.4941119965866783 -7.568916160757543
ltoes 14.216093773305623
14
root 0 0 0 -1.9291690501433656 -3.574903805388228 -3.590317990385801
lowerback 19.649850566928002 1.1859564007872085 -0.6037237045620865
upperback 5.79016973218288 1.5851969061955782 1.156768291403184
thorax -4.729023104331842 0.7742972266122302 1.2968534595194046
lowerneck -1.3634705506493034 -3.108291706565643 1.5824295487443283
upperneck 9.890449166061638 -4.271862542987682 1.8935201696630823
head 3.6657388271847484 -1.9970253630072927 0.10717530342871523
rclavicle 5.102059321748109E-16 2.1134047955818984E-15
rhumerus -16.27665606470561 -19.824248456165673 -75.7492476937177
rradius 74.55656332600253
rwrist 30.867683426094835
rhand -19.72889473527632 -18.60237604320795
rfingers 7.125019999999952
rthumb 6.635014090724997 -48.62440272339519
lclavicle 4.974536086414955E-16 2.2064045589685877E-15
lhumerus -44.736363347344195 -6.66294432031004 82.30373462936339
lradius 60.592553118730706
lwrist 9.586241924100174
lhand -14.234242650613407 -21.508158959061895
lfingers 7.125019999999887
lthumb 11.823006663814631 8.389130281389813
rfemur -19.489745882008894 6.233049065759717 32.603404342285785
rtibia 48.371441937859764
rfoot -10.018358930077778 -8.536669262519238
rtoes 6.859689043035303
lfemur -15.645306297413285 -0.9635706151512298 -21.69683583789034
ltibia 38.6543975140366
lfoot 3.026519289948059 -9.375920635815337
ltoes 13.328573539502749
15
root 0 0 0 -2.0094410104575546 -2.923974091124466 -3.3920840789213744
lowerback 18.176397745126707 1.3070463990935335 -0.6677135602744539
upperback 5.587789248487373 1.7702591430315957 1.3682056127119826
thorax -4.072998889124476 0.8846527331204824 1.5616489681110948
lowerneck -2.33341348028104 -3.5759740662594273 0.5818986870472442
upperneck 16.717659373418027 -5.069708539573019 2.715652884037387
head 6.114540284239302 -2.2768766696024656 0.39058481271991613
rclavicle 1.734963093565425E-15 7.651419391169523E-16
rhumerus -17.922611886578892 -21.474589352559963 -76.56977000867754
rradius 70.3282650502201
rwrist 30.686765659616093
rhand -19.102641827974765 -18.765295810387045
rfingers 7.125019999999946
rthumb 7.238749216197938 -48.720878483018204
lclavicle 2.5088713557973154E-15 1.0670285647840741E-15
lhumerus -44.76058112338347 -6.535815539994908 82.19177128590692
lradius 60.48652354128126
lwrist 9.518221145589411
lhand -14.276871911401923 -21.46939823302712
lfingers 7.125019999999886
lthumb 11.78419001996781 8.451043727624137
rfemur -20.34287990768571 6.684203359819154 32.366337381795
rtibia 44.65831826961548
rfoot -10.15708085921838 -8.534273808448184
rtoes 8.07930368753802
lfemur -11.63737800849157 -0.7574419598163011 -20.556084397606924
ltibia 44.699729665395694
lfoot 6.274893900871724 -12.525978936268363
ltoes 7.3381061398403915
16
root 0 0 0 -1.9432211966618194 -2.8378690521263983 -3.3707391165203644
lowerback 18.229086206454944 1.274525929806346 -0.7047159448010478
upperback 5.690502817406738 1.7249197732700092 1.4247914917769786
thorax -3.985419254398189 0.8662620742434252 1.6487547281071733
lowerneck -1.9054155464469176 -3.563310772434938 0.5980245796495856
upperneck 16.739043443919915 -5.037023344332363 2.7706623458903565
head 6.0379667729465805 -2.267129718024123 0.4143248409788789
rclavicle 5.14044026962984E-16 2.714907450531761E-16
rhumerus -18.069555962602752 -21.31664566611574 -76.69439640750386
rradius 70.19984183622633
rwrist 30.775188344620773
rhand -19.08251928200182 -18.667212461154605
rfingers 7.125019999999944
rthumb 7.258579369452683 -48.63077462164911
lclavicle 1.0676668445878693E-15 3.4587171845637426E-16
lhumerus -44.572803260406225 -6.644507016270341 82.39188643208472
lradius 60.49582767079345
lwrist 9.509175917431348
lhand -14.25405909209702 -21.594772321697405
lfingers 7.125019999999887
lthumb 11.799304057069739 8.325209588950784
rfemur -21.802856929675336 6.205231442162389 32.28978118951167
rtibia 47.38848067404351
rfoot -8.436046421692083 -7.279373377427615
rtoes 9.940158778847067
lfemur -9.84764397909754 -0.6056413218485943 -19.49839058875785
ltibia 48.53502020979943
lfoot 7.806725439019079 -13.936794482035648
ltoes 3.125555064669939
17
root 0 0 0 -1.9024252403277566 -2.8342768138812455 -3.4190303721473603
lowerback 18.473572758184957 1.2114129071061295 -0.7202275828606026
upperback 5.718785275140345 1.6372724687981026 1.442257172277097
thorax -4.099709662428561 0.8218547176172879 1.6823562804626018
lowerneck -1.3357453059435755 -3.5516857432889024 0.7123923529659353
upperneck 13.673195348252152 -4.91441093285232 2.758465220697718
head 4.879141182290421 -2.2618940361841657 0.43468701160882905
rclavicle 7.287933620713884E-16 1.8077894784124712E-17
rhumerus -17.77961559080385 -21.523919416148445 -76.40086003725972
rradius 70.3474263458359
rwrist 30.79014335065937
rhand -19.0410739310772 -18.760519661656346
rfingers 7.125019999999946
rthumb 7.298338384910388 -48.72961882436479
lclavicle 9.510268348038249E-16 2.179097235717043E-16
lhumerus -44.02926945747383 -6.994675850390028 82.99114914948042
lradius 60.67301741329452
lwrist 9.410361763522864
lhand -14.098265127141406 -22.351239710428963
lfingers 7.125019999999899
lthumb 11.95279146267562 7.54962295508164
rfemur -22.78209296941139 5.700453267869601 31.910067583978307
rtibia 49.235112431146966
rfoot -7.548443034730435 -6.4224046189707025
rtoes 11.419311669691922
lfemur -9.091885004643137 -0.1299945168210983 -18.20873637819946
ltibia 53.34034869113166
lfoot 8.030285902016697 -14.48074890298049
ltoes -1.6021250160341651
18
root 0 0 0 -1.853456338220198 -2.8109921382039387 -3.471802914735758
lowerback 18.547986529019305 1.1654772554066886 -0.7079768525081147
upperback 5.6991004768450315 1.572407961594884 1.4344323351730752
thorax -4.1723835923654615 0.7881163039547057 1.6712627719029174
lowerneck -1.0128953408433752 -3.5350123424887796 0.7911878950797446
upperneck 11.290638049444427 -4.816942638084877 2.7532303114780943
head 3.9909797059623373 -2.2542707966541475 0.45345651216331606
rclavicle 2.6906697063630867E-16 -2.4392725088591807E-16
rhumerus -17.442812765539827 -21.606194093233952 -75.93582062662558
rradius 70.52801269404836
rwrist 30.28650332619536
rhand -18.861062977730626 -18.987494699053105
rfingers 7.125019999999946
rthumb 7.471724563390335 -48.945934351303954
lclavicle 5.373710443000945E-16 1.4926053151338092E-16
lhumerus -43.45612081390651 -7.356359984467886 83.69770451171833
lradius 60.80445589298253
lwrist 9.240916659801647
lhand -13.89385042387886 -23.200319291952873
lfingers 7.125019999999913
lthumb 12.15389146127891 6.6704142626804295
rfemur -22.618016777573942 5.6422300325691275 31.737076822718933
rtibia 48.22079737821317
rfoot -7.979748755638428 -6.08026428224513
rtoes 12.329350896864796
lfemur -9.71297112569762 0.7138771280500227 -16.56191703659726
ltibia 58.97026673503963
lfoot 7.008735411459348 -14.151724229841872
ltoes -6.4942794903933745
19
root 0 0 0 -1.7962402101723445 -2.7778920118560406 -3.525028099024413
lowerback 18.718398262549705 1.156507702653202 -0.6857656051583503
upperback 5.774996220534743 1.5561508670581585 1.3963195528671386
thorax -4.1968734207121 0.7777538701331843 1.6156042189628381
lowerneck -0.6950002147468481 -3.548380452053535 0.845035608459415
upperneck 9.161750494517793 -4.779097644749524 2.8009441873026044
head 3.193820963623886 -2.266363061136989 0.48666974814810005
rclavicle -3.024768462954452E-16 -3.1234636465166787E-16
rhumerus -16.90150749295075 -21.22972021115697 -75.34496900838482
rradius 71.32658472889553
rwrist 29.52225879202824
rhand -18.68365085474107 -19.23758258054321
rfingers 7.125019999999945
rthumb 7.642296632919078 -49.17736170809818
lclavicle 5.4079100081764555E-17 2.9890727663773535E-16
lhumerus -43.05969803435686 -7.662827613883076 84.28274426449192
lradius 60.93400488552355
lwrist 9.114647241083723
lhand -13.69849428556503 -23.849267758444352
lfingers 7.125019999999925
lthumb 12.344862010027338 5.978045130984054
rfemur -21.107035364663446 6.190860679548285 31.975384538938652
rtibia 43.58257145173349
rfoot -9.981334058688837 -6.271832549710842
rtoes 12.630075327856364
lfemur -12.648702072249979 1.813669337872303 -15.09937243777686
ltibia 63.34422442464657
lfoot 4.703010371212084 -12.731641346055554
ltoes -8.851053529618365
20
root 0 0 0 -1.7529157705755773 -2.8614263468163585 -3.588552528796202
lowerback 19.196166929616297 1.2292841081513128 -0.6084990691655299
upperback 6.061773686234489 1.6470486834422602 1.2717347645651964
thorax -4.173534612233843 0.8168857124890648 1.4215982906309872
lowerneck -0.32581332592930856 -3.6048823721114758 0.8771935039246284
upperneck 6.451375275766534 -4.801452249930421 2.937350747889989
head 2.192131287376742 -2.307914188917038 0.5530673509117908
rclavicle -1.1016775241640522E-15 3.007255890987516E-16
rhumerus -14.889535462684973 -19.577721052877834 -73.69943221910407
rradius 75.07331595489588
rwrist 27.729721959000308
rhand -18.63801677115506 -19.625739388393022
rfingers 7.125019999999945
rthumb 7.685319114923503 -49.54421758974662
lclavicle -8.230318399910861E-16 1.0499526902631162E-15
lhumerus -42.89410546629378 -7.953407645953853 84.67022780688833
lradius 61.190376143767665
lwrist 9.120934366347011
lhand -13.52420019105808 -24.288627498007983
lfingers 7.1250199999999335
lthumb 12.515191538304055 5.476532655087782
rfemur -15.447580800119493 8.0090223978223 33.530749779810755
rtibia 33.32756489699372
rfoot -14.545061459395798 -7.32364554224647
rtoes 11.186919356968698
lfemur -18.25355313534189 3.138281407726614 -13.769711056953636
ltibia 66.10870044939693
lfoot 1.1027096235885274 -10.063101394608744
ltoes -8.483281480973076
